<svg width="169" height="169" viewBox="0 0 169 169" fill="none" xmlns="http://www.w3.org/2000/svg">
<circle cx="84.5" cy="84.5" r="84.5" fill="#052962"/>
<path d="M79.584 137.584C69.024 137.584 59.904 135.28 52.224 130.672C44.64 125.968 38.88 119.536 34.944 111.376C31.008 103.216 29.04 94 29.04 83.728C29.04 71.92 31.296 61.792 35.808 53.344C40.416 44.896 46.896 38.512 55.248 34.192C63.6 29.872 73.344 27.712 84.48 27.712C94.944 27.712 106.704 29.2 119.76 32.176L118.176 58.96H103.632L99.744 40.528C98.784 39.568 96.96 38.704 94.272 37.936C91.584 37.072 88.08 36.64 83.76 36.64C74.352 36.64 66.96 40.48 61.584 48.16C56.208 55.744 53.52 66.736 53.52 81.136C53.52 95.248 55.824 106.672 60.432 115.408C65.04 124.048 72.048 128.368 81.456 128.368C85.296 128.368 88.896 127.888 92.256 126.928C95.616 125.968 98.16 124.72 99.888 123.184V92.224L84.624 90.784V81.136H128.4V90.784L120.768 92.08V130.24C118.752 130.336 115.104 131.152 109.824 132.688C103.68 134.32 98.4 135.52 93.984 136.288C89.664 137.152 84.864 137.584 79.584 137.584Z" fill="white"/>
</svg>
