<svg id="Capa_1" enable-background="new 0 0 512 512" height="512" viewBox="0 0 512 512" width="512" xmlns="http://www.w3.org/2000/svg"><g><g><g><path d="m467 512h-422c-24.814 0-45-20.186-45-45v-422c0-24.814 20.186-45 45-45h422c24.814 0 45 20.186 45 45v422c0 24.814-20.186 45-45 45z" fill="#4086f4"/></g><g><circle cx="76" cy="76" fill="#fff5f5" r="15"/></g><g><circle cx="76" cy="436" fill="#fff5f5" r="15"/></g><path d="m467 0h-211v512h211c24.814 0 45-20.186 45-45v-422c0-24.814-20.186-45-45-45z" fill="#4175df"/><g><circle cx="436" cy="436" fill="#e3e7ea" r="15"/></g><g><circle cx="436" cy="76" fill="#e3e7ea" r="15"/></g></g><g><path d="m256 451c-107.52 0-195-87.48-195-195s87.48-195 195-195 195 87.48 195 195-87.48 195-195 195z" fill="#fff5f5"/></g><g><path d="m451 256c0-107.52-87.48-195-195-195v390c107.52 0 195-87.48 195-195z" fill="#e3e7ea"/></g><g><path d="m256 361c-57.891 0-105-47.109-105-105s47.109-105 105-105c28.052 0 54.419 10.928 74.238 30.762 5.859 5.859 5.859 15.366 0 21.211-5.859 5.859-15.352 5.859-21.211 0-14.165-14.165-32.988-21.973-53.027-21.973-41.353 0-75 33.647-75 75s33.647 75 75 75c36.226 0 66.519-25.811 73.491-60h-73.491c-8.291 0-15-6.709-15-15s6.709-15 15-15h90c8.291 0 15 6.709 15 15 0 57.891-47.109 105-105 105z" fill="#4086f4"/></g><g fill="#4175df"><path d="m346 241h-90v30h73.491c-6.973 34.189-37.266 60-73.491 60v30c57.891 0 105-47.109 105-105 0-8.291-6.709-15-15-15z"/><path d="m309.027 202.973c5.859 5.859 15.352 5.859 21.211 0 5.859-5.845 5.859-15.352 0-21.211-19.819-19.834-46.186-30.762-74.238-30.762v30c20.039 0 38.862 7.808 53.027 21.973z"/></g></g></svg>