<svg width="169" height="169" viewBox="0 0 169 169" fill="none" xmlns="http://www.w3.org/2000/svg">
<circle cx="84.5" cy="84.5" r="84.5" fill="#004DB3"/>
<path d="M41.7812 125.219C36.1562 122.25 31.3125 119.563 31.0312 119.281C30.1875 118.469 30.75 117.906 34.3437 115.813L37.5 113.969V89.6875V65.4063L31.5 61.1562C23.6875 55.6562 23.5 55.5 23.9375 54.8125C24.0937 54.5 28.1562 51.75 32.9062 48.6875L41.5937 43.0938L43.8437 44.4688C45.0625 45.2188 48.6875 47.3438 51.8437 49.2188L57.5937 52.5625L58.7187 52.0312C59.3437 51.75 64.4062 49.0313 69.9375 46.0313L80.0625 40.5938L89.125 45.625L98.1875 50.625L99.3125 49.9375C99.9687 49.5625 104.094 46.9375 108.562 44.1563C113 41.3438 116.812 39.0625 117.062 39.0625C117.531 39.0625 137.687 50.7812 138.531 51.5312C139.031 52.0312 139.062 53.8125 139.156 80.625L139.219 109.219L139.937 110.969C140.781 113.063 142.562 115.188 144.906 116.906C146.063 117.781 146.562 118.344 146.562 118.844C146.531 119.375 144.844 120.75 138.687 125.094L130.875 130.656L129.406 130.156C126.875 129.344 124 127.438 121.531 125C118.969 122.469 117.625 120.312 116.594 117.281C115.937 115.375 115.937 114.844 115.937 88.8437L115.906 62.3438L110.25 58.8125C107.156 56.875 104.562 55.3437 104.5 55.375C104.375 55.5312 104.344 59.7813 104.344 69.625L104.375 78.125H109.844C112.844 78.125 115.312 78.1875 115.312 78.2812C115.312 78.375 112.844 82.0312 109.844 86.4062L104.375 94.3437V104.031V113.719L108.312 116.469C112.031 119.063 113.031 119.969 112.281 120.219C112.125 120.281 108.281 122.656 103.75 125.469C99.1875 128.313 95.4062 130.625 95.3125 130.625C94.6562 130.594 70.75 117.531 70.4062 116.969C69.8437 116.125 70.1875 115.75 73.5312 113.687L75.9375 112.219V103.75V95.3125H70.3125H64.6875V106.187V117.063L66.7187 118.281C68.8125 119.562 69.1875 120.031 68.9062 120.938C68.75 121.375 52.8437 130.656 52.25 130.625C52.125 130.594 47.4375 128.156 41.7812 125.219V125.219ZM63.125 85.625C63.125 59.3125 63.0625 55.3125 62.6562 55.3125C61.8125 55.3125 60.6875 56 60.3437 56.7812C60.0937 57.3125 60 65.8437 60 86.0938C60 113.125 60.0312 114.688 60.5625 114.688C60.8437 114.688 61.5312 114.969 62.0312 115.312C62.5625 115.656 63 115.938 63.0625 115.938C63.0937 115.938 63.125 102.313 63.125 85.625ZM102.812 103.906V95.3125H101.562H100.312L100.375 103.469L100.469 111.625L101.562 112.031C102.156 112.25 102.687 112.437 102.75 112.469C102.781 112.469 102.812 108.625 102.812 103.906V103.906ZM71.2812 82.2813C73.8125 78.5 74.1562 78.125 75 78.125H75.9375L75.875 70.2812L75.7812 62.4062L70.4687 59.1875C67.5625 57.4062 65.0625 55.9375 64.9375 55.9375C64.7812 55.9375 64.6875 64.0625 64.6875 73.9687V92L66.5937 89.1875C67.6562 87.6562 69.7812 84.5313 71.2812 82.2813V82.2813ZM102.625 66.5C102.531 60.0938 102.406 54.6563 102.312 54.4688C102.125 53.8438 100.406 53.9688 100.156 54.625C100.062 54.9063 100.062 60.3125 100.187 66.6563L100.406 78.125H101.594H102.781L102.625 66.5V66.5Z" fill="white"/>
</svg>
